<svg viewBox="0 0 30 30" fill="currentColor" xmlns="http://www.w3.org/2000/svg" width="1.875rem" height="1.875rem"><path fill-rule="evenodd" clip-rule="evenodd" d="M12.5 13H15V17H12.5C12.4991 17.8286 11.8336 18.5 11 18.5C10.1716 18.5 9.5 17.8288 9.5 16.9983V13.0017C9.5 12.1723 10.1658 11.5 11 11.5C11.8279 11.5 12.4991 12.1703 12.5 13ZM19 14V12H17V14H15V16H17V18H19V16H21V18H23V16H25V14H23V12H21V14H19ZM26.903 8.57882L26.9697 8.53678C26.8363 8.30558 26.6362 8.09539 26.4361 7.9903L15.6964 2.14713C15.5185 2.04204 15.2739 2 15.0071 2C14.7403 2 14.4957 2.06306 14.3178 2.14713L3.64483 8.01132C3.26682 8.2215 3 8.74697 3 9.14632V20.8537C3 21.0849 3.04447 21.3371 3.20012 21.5683L3.15565 21.5893C3.26682 21.7575 3.42247 21.9046 3.57812 21.9887L14.2956 27.8529C14.4735 27.958 14.718 28 14.9849 28C15.2517 28 15.4963 27.9369 15.6742 27.8529L26.3472 21.9887C26.7252 21.7785 26.992 21.253 26.992 20.8537V9.1253C27.0142 8.95715 26.992 8.76799 26.903 8.57882ZM7 12.9958C7 10.789 8.79536 9 11 9C13.2091 9 15 10.7965 15 12.9958V17.0042C15 19.211 13.2046 21 11 21C8.79086 21 7 19.2035 7 17.0042V12.9958Z" fill="#98a8b9"></path></svg>
